{"asset": {"version": "2.0"}, "scene": 0, "scenes": [{"nodes": [0]}], "nodes": [{"mesh": 0}], "meshes": [{"primitives": [{"attributes": {"POSITION": 0}, "indices": 1, "material": 0}]}], "materials": [{"pbrMetallicRoughness": {"baseColorFactor": [0.3, 0.6, 0.85, 1], "roughnessFactor": 0.8}}], "buffers": [{"uri": "data:application/octet-stream;base64,", "byteLength": 168}], "bufferViews": [{"buffer": 0, "byteOffset": 0, "byteLength": 96}, {"buffer": 0, "byteOffset": 96, "byteLength": 72}], "accessors": [{"bufferView": 0, "componentType": 5126, "count": 8, "type": "VEC3", "min": [-0.4, 0, -0.4], "max": [0.4, 1.8, 0.4]}, {"bufferView": 1, "componentType": 5123, "count": 36, "type": "SCALAR"}]}